<svg width="742" height="711" viewBox="0 0 742 711" fill="none" xmlns="http://www.w3.org/2000/svg">
<g id="tolva" filter="url(#filter0_d)">
<g clip-path="url(#clip0)">
<path id="Vector" d="M28.006 434.257C27.8922 434.124 27.8114 433.966 27.7703 433.795C12.4468 370.503 15.0231 304.196 35.2113 242.284C55.3995 180.371 92.4044 125.291 142.092 83.1974C191.779 41.1036 252.192 13.6539 316.58 3.91515C380.969 -5.82357 446.797 2.53226 506.71 28.0491C506.846 28.1066 506.968 28.1902 507.071 28.2952C507.174 28.4001 507.256 28.5243 507.311 28.6607C507.366 28.7971 507.393 28.943 507.392 29.09C507.391 29.237 507.36 29.3824 507.303 29.5177C507.245 29.653 507.162 29.7757 507.057 29.8787C506.952 29.9817 506.827 30.063 506.691 30.118C506.555 30.1731 506.409 30.2007 506.262 30.1993C506.115 30.1979 505.969 30.1676 505.834 30.1101C383.257 -22.012 244.164 -0.770058 142.837 85.5468C42.1281 171.337 -1.12825 304.575 29.9481 433.269C30.0073 433.514 29.9822 433.771 29.8768 434C29.7715 434.229 29.592 434.416 29.3675 434.53C29.1429 434.644 28.8864 434.68 28.6394 434.63C28.3923 434.581 28.1692 434.449 28.006 434.257V434.257Z" fill="#E6E6E6"/>
<path id="Vector_2" d="M232.727 674.583C232.563 674.391 232.469 674.15 232.459 673.898C232.45 673.646 232.525 673.399 232.674 673.195C232.823 672.992 233.036 672.844 233.278 672.777C233.521 672.709 233.78 672.726 234.012 672.823C356.129 723.965 494.552 702.441 595.262 616.649C697.543 529.521 740.977 395.588 708.616 267.118C708.58 266.975 708.573 266.827 708.594 266.681C708.615 266.536 708.665 266.396 708.741 266.27C708.816 266.144 708.916 266.033 709.034 265.946C709.152 265.858 709.286 265.794 709.429 265.759C709.572 265.723 709.72 265.715 709.865 265.737C710.011 265.758 710.151 265.808 710.277 265.884C710.403 265.959 710.513 266.059 710.601 266.177C710.689 266.295 710.752 266.429 710.788 266.572C726.493 328.999 724.501 394.567 705.038 455.926C684.885 519.16 647.347 575.448 596.715 618.354C547.276 660.491 487.117 688.084 422.93 698.065C358.742 708.046 293.045 700.023 233.146 674.889C232.984 674.821 232.841 674.716 232.727 674.583V674.583Z" fill="#E6E6E6"/>
<path id="Vector_3" d="M206.846 694.461C206.75 694.349 206.678 694.219 206.633 694.08C206.587 693.94 206.57 693.792 206.582 693.646C206.593 693.499 206.634 693.356 206.701 693.225C206.768 693.094 206.86 692.978 206.972 692.882L736.016 242.211C736.242 242.018 736.536 241.923 736.832 241.947C737.128 241.97 737.402 242.111 737.595 242.337C737.788 242.563 737.882 242.856 737.859 243.152C737.835 243.448 737.695 243.723 737.469 243.916L208.424 694.587C208.313 694.683 208.183 694.755 208.043 694.801C207.903 694.846 207.755 694.863 207.609 694.851C207.462 694.84 207.319 694.799 207.188 694.732C207.058 694.665 206.941 694.573 206.846 694.461Z" fill="#E6E6E6"/>
<path id="Vector_4" d="M4.2675 456.654C4.17209 456.542 4.09969 456.413 4.05441 456.273C4.00912 456.133 3.99184 455.985 4.00356 455.839C4.01529 455.692 4.05579 455.549 4.12275 455.418C4.18971 455.287 4.28181 455.171 4.39379 455.076L533.438 4.40374C533.664 4.21149 533.957 4.11688 534.253 4.1407C534.549 4.16452 534.823 4.30481 535.016 4.53076C535.208 4.75671 535.303 5.04983 535.28 5.34572C535.256 5.6416 535.116 5.91604 534.89 6.10874L5.84622 456.781C5.73428 456.876 5.60465 456.948 5.46472 456.994C5.32478 457.039 5.1773 457.056 5.03069 457.044C4.88409 457.033 4.74124 456.992 4.61028 456.925C4.47933 456.858 4.36284 456.766 4.2675 456.654V456.654Z" fill="#E6E6E6"/>
<path id="Vector_5" d="M206.846 694.461C206.75 694.349 206.678 694.219 206.633 694.08C206.587 693.94 206.57 693.792 206.582 693.646C206.593 693.499 206.634 693.356 206.701 693.225C206.768 693.094 206.86 692.978 206.972 692.882L736.016 242.211C736.242 242.018 736.536 241.923 736.832 241.947C737.128 241.97 737.402 242.111 737.595 242.337C737.788 242.563 737.882 242.856 737.859 243.152C737.835 243.448 737.695 243.723 737.469 243.916L208.424 694.587C208.313 694.683 208.183 694.755 208.043 694.801C207.903 694.846 207.755 694.863 207.609 694.851C207.462 694.84 207.319 694.799 207.188 694.732C207.058 694.665 206.941 694.573 206.846 694.461Z" fill="#E6E6E6"/>
<path id="Vector_6" d="M622.532 185.751H417.775V184.679C417.775 183.844 417.444 183.043 416.853 182.453C416.263 181.863 415.462 181.531 414.627 181.531H328.079C327.244 181.531 326.443 181.863 325.853 182.453C325.263 183.043 324.931 183.844 324.931 184.679V185.751H119.33C115.657 185.751 112.134 187.21 109.536 189.808C106.939 192.405 105.48 195.928 105.48 199.601V479.976C105.48 483.65 106.939 487.172 109.536 489.77C112.134 492.367 115.657 493.827 119.33 493.827H622.532C626.205 493.827 629.728 492.367 632.326 489.77C634.923 487.172 636.382 483.65 636.382 479.976V199.601C636.382 195.928 634.923 192.405 632.326 189.808C629.728 187.21 626.205 185.751 622.532 185.751V185.751Z" fill="#3F3D56"/>
<path id="Vector_7" d="M130.296 215C129.952 215 129.623 215.137 129.38 215.38C129.137 215.623 129 215.953 129 216.296V482.238C129 482.582 129.137 482.911 129.38 483.154C129.623 483.397 129.952 483.534 130.296 483.534H611.468C611.812 483.534 612.141 483.397 612.384 483.154C612.627 482.911 612.764 482.582 612.764 482.238V216.296C612.764 215.953 612.627 215.623 612.384 215.38C612.141 215.137 611.812 215 611.468 215H130.296Z" fill="#6C63FF"/>
<path id="Vector_8" d="M370.509 202.632C373.306 202.632 375.573 200.365 375.573 197.568C375.573 194.771 373.306 192.504 370.509 192.504C367.712 192.504 365.445 194.771 365.445 197.568C365.445 200.365 367.712 202.632 370.509 202.632Z" fill="#6C63FF"/>
<path id="Vector_9" d="M645.604 474.93H597.416V469.954C597.416 469.68 597.108 469.459 596.727 469.459H580.206C579.825 469.459 579.517 469.68 579.517 469.954V474.93H569.191V469.954C569.191 469.68 568.883 469.459 568.503 469.459H551.981C551.601 469.459 551.293 469.68 551.293 469.954V474.93H540.967V469.954C540.967 469.68 540.658 469.459 540.278 469.459H523.757C523.376 469.459 523.068 469.68 523.068 469.954V474.93H512.742V469.954C512.742 469.68 512.434 469.459 512.054 469.459H495.532C495.152 469.459 494.844 469.68 494.844 469.954V474.93H484.518V469.954C484.518 469.68 484.209 469.459 483.829 469.459H467.307C466.927 469.459 466.619 469.68 466.619 469.954V474.93H456.293V469.954C456.293 469.68 455.985 469.459 455.605 469.459H439.083C438.703 469.459 438.395 469.68 438.395 469.954V474.93H428.069V469.954C428.069 469.68 427.76 469.459 427.38 469.459H297.96C297.58 469.459 297.272 469.68 297.272 469.954V474.93H286.946V469.954C286.946 469.68 286.638 469.459 286.258 469.459H269.736C269.356 469.459 269.047 469.68 269.047 469.954V474.93H258.721V469.954C258.721 469.68 258.413 469.459 258.033 469.459H241.511C241.131 469.459 240.823 469.68 240.823 469.954V474.93H230.497V469.954C230.497 469.68 230.189 469.459 229.808 469.459H213.287C212.907 469.459 212.598 469.68 212.598 469.954V474.93H202.272V469.954C202.272 469.68 201.964 469.459 201.584 469.459H185.062C184.682 469.459 184.374 469.68 184.374 469.954V474.93H174.048V469.954C174.048 469.68 173.74 469.459 173.359 469.459H156.838C156.457 469.459 156.149 469.68 156.149 469.954V474.93H145.823V469.954C145.823 469.68 145.515 469.459 145.135 469.459H128.613C128.233 469.459 127.925 469.68 127.925 469.954V474.93H96.2582C87.1336 474.93 79.7366 480.248 79.7366 486.807V492.177C79.7366 498.737 87.1336 504.054 96.2582 504.054H645.604C654.729 504.054 662.126 498.737 662.126 492.177V486.807C662.126 480.248 654.729 474.93 645.604 474.93Z" fill="#3F3D56"/>
<path id="Vector_10" d="M314.909 327.114H172.686C172.389 327.114 172.104 326.996 171.894 326.786C171.684 326.576 171.566 326.291 171.566 325.994C171.566 325.697 171.684 325.413 171.894 325.203C172.104 324.993 172.389 324.875 172.686 324.875H314.909C315.206 324.875 315.491 324.993 315.701 325.203C315.911 325.413 316.029 325.697 316.029 325.994C316.029 326.291 315.911 326.576 315.701 326.786C315.491 326.996 315.206 327.114 314.909 327.114Z" fill="#F2F2F2"/>
<path id="Vector_11" d="M314.909 351.752H172.686C172.389 351.752 172.104 351.634 171.894 351.424C171.684 351.214 171.566 350.929 171.566 350.632C171.566 350.335 171.684 350.05 171.894 349.84C172.104 349.63 172.389 349.512 172.686 349.512H314.909C315.206 349.512 315.491 349.63 315.701 349.84C315.911 350.05 316.029 350.335 316.029 350.632C316.029 350.929 315.911 351.214 315.701 351.424C315.491 351.634 315.206 351.752 314.909 351.752Z" fill="#F2F2F2"/>
<path id="Vector_12" d="M314.909 376.389H172.686C172.538 376.389 172.392 376.36 172.256 376.304C172.12 376.248 171.996 376.166 171.892 376.062C171.787 375.958 171.704 375.834 171.648 375.698C171.591 375.562 171.562 375.416 171.562 375.269C171.562 375.121 171.591 374.976 171.648 374.84C171.704 374.703 171.787 374.58 171.892 374.476C171.996 374.372 172.12 374.289 172.256 374.233C172.392 374.177 172.538 374.149 172.686 374.149H314.909C315.057 374.149 315.203 374.177 315.339 374.233C315.475 374.289 315.599 374.372 315.703 374.476C315.808 374.58 315.891 374.703 315.947 374.84C316.003 374.976 316.033 375.121 316.033 375.269C316.033 375.416 316.003 375.562 315.947 375.698C315.891 375.834 315.808 375.958 315.703 376.062C315.599 376.166 315.475 376.248 315.339 376.304C315.203 376.36 315.057 376.389 314.909 376.389Z" fill="#F2F2F2"/>
<path id="kassi" d="M556.18 263H380.36C378.504 263 377 264.504 377 266.36V435.46C377 437.316 378.504 438.82 380.36 438.82H556.18C558.035 438.82 559.539 437.316 559.539 435.46V266.36C559.539 264.504 558.035 263 556.18 263Z" fill="white"/>
<path id="sky" d="M413.614 355.771C414.217 345.122 418.581 335.033 425.93 327.303C433.279 319.573 443.135 314.704 453.74 313.564C464.345 312.424 475.01 315.088 483.834 321.081C492.657 327.073 499.066 336.004 501.917 346.282C502.462 346.263 503.007 346.241 503.557 346.241C505.433 346.259 507.295 346.575 509.072 347.179C531.459 354.53 525.564 387.954 502.001 387.954H444.092C439.996 387.966 435.94 387.151 432.167 385.558C428.394 383.965 424.981 381.627 422.132 378.685C419.284 375.742 417.058 372.254 415.589 368.431C414.12 364.608 413.437 360.528 413.582 356.435C413.591 356.214 413.602 355.993 413.614 355.771Z" fill="#6C63FF"/>
<path id="or" d="M466.397 355.07V336.649H456.478V355.07H448.559L454.998 366.224L461.438 377.377L467.877 366.224L474.316 355.07H466.397Z" fill="white"/>
</g>
</g>
<defs>
<filter id="filter0_d" x="0" y="0" width="741.862" height="710.195" filterUnits="userSpaceOnUse" color-interpolation-filters="sRGB">
<feFlood flood-opacity="0" result="BackgroundImageFix"/>
<feColorMatrix in="SourceAlpha" type="matrix" values="0 0 0 0 0 0 0 0 0 0 0 0 0 0 0 0 0 0 127 0"/>
<feOffset dy="4"/>
<feGaussianBlur stdDeviation="2"/>
<feColorMatrix type="matrix" values="0 0 0 0 0 0 0 0 0 0 0 0 0 0 0 0 0 0 0.25 0"/>
<feBlend mode="normal" in2="BackgroundImageFix" result="effect1_dropShadow"/>
<feBlend mode="normal" in="SourceGraphic" in2="effect1_dropShadow" result="shape"/>
</filter>
<clipPath id="clip0">
<rect x="4" width="733.862" height="702.195" fill="white"/>
</clipPath>
</defs>
</svg>
